<svg xmlns="http://www.w3.org/2000/svg" width="151.194" height="24.673" viewBox="0 0 151.194 24.673">
  <g id="Layer-1" transform="translate(504 -7)">
    <path id="Path_1" data-name="Path 1" d="M315.316,178.588a18.784,18.784,0,0,0-2.12-.156h-.086c-7.516.139-10.471,4-11.63,6.818a8.5,8.5,0,0,0-.489,1.892c-.014.119-.026.24-.037.368,0,.058-.01.117-.011.173-.169,2.61.554,7,6.869,8.509.345.08.705.154,1.088.218a25.568,25.568,0,0,0,4.838.41,30.161,30.161,0,0,0,8.211-.969c.124-.791.378-2.406.575-3.649a39.429,39.429,0,0,1-7.877.874c-.121,0-.236,0-.353-.007-5.3-.181-6.35-2.781-6.36-3.973,0,0,0-.022,0-.055h15.214c1.5-8.525-6.057-10.186-7.828-10.455Zm-68.094,0a18.829,18.829,0,0,0-2.121-.156h-.085c-7.516.139-10.472,4-11.631,6.818a8.5,8.5,0,0,0-.489,1.892c-.013.119-.025.24-.037.368-.006.058-.01.117-.013.173-.168,2.61.556,7,6.87,8.509.347.08.7.154,1.086.218a25.6,25.6,0,0,0,4.841.41,30.154,30.154,0,0,0,8.21-.969c.123-.791.378-2.406.575-3.649a39.448,39.448,0,0,1-7.878.874c-.12,0-.234,0-.351-.007-5.3-.181-6.351-2.781-6.36-3.973,0,0,0-.022-.006-.055H255.05c1.5-8.525-6.057-10.186-7.828-10.455Zm-21.861,7.375-2.676-1.123c-1.873-.752-3.287-1.306-3.041-2.079.138-.434,1-.721,3.566-.721a42.923,42.923,0,0,1,7.866.838l.171.03.017-.169.327-3.349.014-.149-.151-.029a50.191,50.191,0,0,0-8.121-.833c-.265,0-.529-.008-.788-.008a30.7,30.7,0,0,0-4.127.261c-2.387.33-6.42,1.38-6.621,4.709-.208,3.409,3.869,4.9,6.361,5.934l2.064.819c2.354.944,3.471,1.288,3.425,1.985-.045.661-.939.828-3.06.828-.264,0-.542,0-.831-.009a64.393,64.393,0,0,1-7.873-.857l-.175-.031-.011.174-.229,3.622-.01.149.152.024a76.357,76.357,0,0,0,8.822.612q.531.014,1.056.014c4.355,0,9.665-.68,10.248-4.308C232.269,188.972,228.771,187.488,225.361,185.963Zm68.1,0-2.679-1.123c-1.871-.752-3.284-1.306-3.039-2.079.14-.434,1-.721,3.566-.721a42.92,42.92,0,0,1,7.866.838l.171.03.017-.169.327-3.349.014-.149-.151-.029a50.211,50.211,0,0,0-8.12-.833c-.266,0-.53-.008-.789-.008a30.713,30.713,0,0,0-4.127.261c-2.387.33-6.42,1.38-6.621,4.709-.207,3.409,3.868,4.9,6.361,5.934l2.063.819c2.355.944,3.472,1.288,3.424,1.985-.044.661-.938.828-3.057.828-.265,0-.541,0-.832-.009a64.44,64.44,0,0,1-7.873-.857l-.174-.031-.013.174-.228,3.622-.01.149.152.024a76.393,76.393,0,0,0,8.822.612q.529.014,1.056.014c4.354,0,9.665-.68,10.247-4.308C300.363,188.972,296.865,187.488,293.456,185.963Zm-21.194-7.2c-.167-.018-1.5-.124-3.32-.124-.471,0-.975.006-1.5.025-4.344.147-9.682.762-9.737.773l-.124.018-1.094,17.1H263.5l.852-13.881a32.138,32.138,0,0,1,4.445-.27c1.6.094,2.559.592,2.435,2.454l0,.1-.742,11.6h6.981l.749-11.784c.334-5.353-3.452-5.748-5.957-6.008Zm-62.156.008h-7.48l-.012.152-1.349,17.551h7.484l1.343-17.526Zm-9.846-6.626h-7.623l-.011.151-.648,8.351H181.026l.539-6.951c.018-1.495-1.247-1.552-1.877-1.552h-5.649l-.012.151-1.867,24-.014.176h7.65l.012-.152.824-10.6h10.95l-.821,10.575-.015.176h7.624l.011-.152,1.864-24ZM317.2,185.7h-8.978a4.537,4.537,0,0,1,4.824-3.775C317.495,181.962,317.2,185.7,317.2,185.7Zm-68.1,0h-8.977a4.536,4.536,0,0,1,4.823-3.775C249.4,181.962,249.108,185.7,249.108,185.7Zm-40.147-13.55h-5.8l-.011.176-.326,4.29-.013.176h7.481l.01-.153s.181-2.493.21-2.937C210.579,172.66,210.163,172.149,208.961,172.149Z" transform="translate(-676.146 -165.149)" fill="#00a9a6"/>
  </g>
</svg>
