<?xml version="1.0" encoding="UTF-8"?>
<svg width="1048px" height="246px" viewBox="0 0 1048 246" version="1.1" xmlns="http://www.w3.org/2000/svg" xmlns:xlink="http://www.w3.org/1999/xlink">
    <!-- Generator: Sketch 62 (91390) - https://sketch.com -->
    <title>homegoods-active</title>
    <desc>Created with Sketch.</desc>
    <g id="Global-Header-Logos-Large" stroke="none" stroke-width="1" fill="none" fill-rule="evenodd">
        <g id="Logos/HomeGoods-Color-lg" transform="translate(0.000000, -2.000000)" fill="#C51F3F" fill-rule="nonzero">
            <g id="homegoods-color" transform="translate(9.000000, 3.000000)">
                <polygon id="Shape" points="1007.36855 66.8611482 504.546453 0 503.166969 0 0.344871123 66.8611482 0 77.2540728 503.856711 10.0464938 1006.67881 77.2540728"></polygon>
                <path d="M995.642933,147.92596 C995.642933,138.225897 1003.2301,131.297281 1012.54162,131.297281 C1021.50827,131.297281 1029.09543,138.225897 1029.09543,147.92596 C1029.09543,157.626023 1021.50827,164.554639 1012.54162,164.554639 C1003.2301,164.554639 995.642933,157.626023 995.642933,147.92596 Z M1012.19675,161.783193 C1019.78391,161.783193 1025.64672,155.893869 1025.64672,147.92596 C1025.64672,139.958051 1019.78391,134.068727 1012.19675,134.068727 C1004.60958,134.068727 998.746773,139.958051 998.746773,147.92596 C998.746773,155.893869 1004.60958,161.783193 1012.19675,161.783193 Z M1008.74804,157.626023 L1005.98907,157.626023 L1005.98907,138.572328 L1013.23136,138.572328 C1017.71468,138.572328 1019.78391,140.304482 1019.78391,144.115221 C1019.78391,147.579529 1017.71468,148.965252 1014.95572,149.311683 L1020.47365,157.626023 L1017.36981,157.626023 L1012.19675,149.311683 L1008.74804,149.311683 L1008.74804,157.626023 L1008.74804,157.626023 Z M1012.19675,146.886667 C1014.61084,146.886667 1016.68007,146.886667 1016.68007,143.76879 C1016.68007,141.343774 1014.61084,140.997344 1012.54162,140.997344 L1008.74804,140.997344 L1008.74804,146.886667 L1012.19675,146.886667 L1012.19675,146.886667 Z" id="Shape"></path>
                <path d="M813.206109,173.21541 C811.136882,151.043837 799.411264,138.918759 778.718996,138.225897 C778.718996,138.225897 776.994641,138.225897 776.994641,138.225897 C768.372863,138.225897 751.129307,140.650913 738.713946,151.390268 C733.196008,156.2403 728.367812,163.515347 727.67807,164.554639 C724.57423,169.404671 723.194746,174.254702 721.47039,180.836888 C719.746034,188.458366 718.021679,199.890583 718.711421,208.204923 C720.780648,232.801511 731.816524,243.194435 754.922889,243.194435 C771.476703,243.194435 786.995903,235.919388 799.756135,222.408586 C806.653557,215.47997 808.377913,209.244215 810.792011,200.237014 C812.516366,192.961966 813.895851,181.183319 813.206109,173.21541 Z M776.304899,226.565756 C772.511316,230.722926 768.027992,232.801511 762.854925,232.801511 C752.16392,232.801511 745.611369,222.755017 744.576755,213.401385 C743.197271,197.811998 743.887013,168.018947 755.957502,155.201007 C759.751085,151.043837 764.234409,148.965252 769.407476,148.965252 C780.098481,148.965252 786.651032,159.011746 787.685646,168.365378 C789.06513,183.608334 788.375388,213.401385 776.304899,226.565756 Z" id="Shape"></path>
                <path d="M990.124995,204.047753 C989.090382,190.883382 977.019892,183.954765 967.01863,181.87618 L954.258398,179.104734 C946.671233,177.37258 938.049455,174.947564 937.359713,166.979655 C937.014842,162.476054 938.049455,158.665315 940.463553,155.893869 C943.222522,152.775991 947.360976,151.390268 952.878914,151.390268 C960.810949,151.390268 969.087856,154.508146 976.33015,160.397469 L978.399377,170.443963 C978.399377,170.790394 978.744248,170.790394 979.089119,170.790394 L983.227572,170.790394 L985.296799,143.76879 C979.089119,140.650913 972.191697,138.918759 964.949403,138.225897 L964.949403,138.225897 C964.949403,138.225897 964.949403,138.225897 964.949403,138.225897 C963.569918,138.225897 961.845563,137.879466 960.466078,137.879466 C957.707109,137.879466 955.637883,138.225897 953.568656,138.572328 C931.841775,141.343774 922.875126,154.508146 919.771286,162.476054 C919.081544,164.208208 918.391801,166.633224 918.04693,168.711809 C917.702059,170.790394 917.702059,172.868979 918.04693,175.293995 C919.426415,191.229812 933.22126,197.119136 944.946878,199.544152 L954.603269,201.622737 C964.259661,203.354891 969.087856,207.858492 969.777599,215.133539 C970.12247,219.290709 969.087856,222.408586 967.01863,225.180033 C963.225047,229.337203 956.672496,230.030064 951.8443,230.030064 C943.912264,230.030064 930.11742,225.180033 923.909739,218.251416 L921.840513,208.551353 C921.840513,208.204923 921.495641,207.858492 921.15077,207.858492 L917.012317,207.858492 C916.667446,207.858492 916.322575,208.204923 916.322575,208.551353 C916.322575,211.669231 916.322575,214.787108 915.977703,217.904985 L915.632832,217.904985 C915.632832,217.904985 915.632832,217.904985 915.287961,217.904985 C912.528992,219.98357 907.011054,223.794309 905.63157,223.794309 C904.252085,223.794309 903.217472,222.408586 902.872601,220.676432 C902.872601,218.944278 902.872601,214.440677 903.217472,212.362092 L903.907214,207.16563 C903.907214,207.16563 903.907214,207.16563 903.907214,207.16563 L904.252085,203.701322 L915.977703,97.6934911 C916.322575,92.8434596 917.012317,89.7255823 917.702059,85.2219816 C917.702059,84.8755508 917.702059,84.8755508 917.357188,84.52912 L914.94309,82.4505351 C914.94309,82.4505351 914.598219,82.1041042 914.253348,82.4505351 C901.837987,87.9934282 885.973916,90.4184439 873.213684,92.150598 C872.868813,92.150598 872.868813,92.4970288 872.868813,92.4970288 L871.8342,98.3863528 C871.8342,98.3863528 871.8342,98.7327836 871.8342,98.7327836 C871.8342,98.7327836 872.179071,99.0792144 872.179071,99.0792144 L881.835462,99.0792144 C887.3534,99.0792144 889.422627,101.50423 890.112369,107.739985 C890.112369,109.472139 890.112369,111.550724 890.112369,113.629309 L888.388014,139.265189 L889.077756,139.265189 L889.077756,139.61162 C884.939302,137.879466 879.766236,137.186605 874.248298,136.840174 C872.523942,136.840174 871.144457,136.840174 869.764973,136.840174 C868.040617,136.840174 864.591906,136.840174 860.108581,137.533035 C857.349612,137.879466 854.590644,138.572328 852.521417,139.265189 C842.520154,142.383067 831.139407,148.965252 824.586856,162.822485 C821.827887,167.672517 820.448402,172.868979 818.724047,179.451165 C816.999691,187.072643 815.275335,198.50486 815.965078,206.819199 C818.034304,231.415787 829.07018,241.808712 852.176546,241.808712 C862.522679,241.808712 872.523942,234.880096 880.455978,227.605048 C880.111107,228.990772 879.766236,230.376495 880.111107,231.762218 C880.455978,236.265819 883.214947,241.462281 889.422627,241.462281 C894.595694,241.462281 905.63157,235.226526 915.287961,227.951479 C914.94309,230.376495 914.94309,232.45508 914.598219,234.880096 C914.598219,235.226526 914.598219,235.572957 914.94309,235.572957 C924.944353,238.690835 934.600744,241.808712 944.257136,241.462281 C959.776336,241.11585 978.054506,237.651542 988.055768,217.558555 C989.780124,213.747816 990.469866,210.283507 990.124995,204.047753 Z M870.799586,226.219325 C867.006004,230.376495 862.522679,232.45508 857.349612,232.45508 C846.658608,232.45508 840.106056,222.408586 839.071443,213.054954 C837.691958,197.465567 838.381701,167.672517 850.45219,154.854576 C854.245772,150.697407 858.729097,148.618822 863.902164,148.618822 C874.593169,148.618822 881.14572,158.665315 882.180333,168.018947 C883.214947,183.608334 882.525204,213.401385 870.799586,226.219325 Z" id="Shape"></path>
                <path d="M250.721307,173.21541 C248.65208,150.350976 236.236719,138.225897 214.85471,138.225897 C198.300896,138.225897 183.471438,145.154513 170.021464,159.011746 C170.021464,159.011746 169.676593,159.358177 169.676593,159.358177 L145.190743,159.358177 L148.984325,117.093617 C150.018939,106.700692 153.122779,106.354262 158.640717,106.007831 L167.607366,105.314969 C167.952237,105.314969 168.297108,104.968538 168.297108,104.622108 L168.641979,97.0006295 L140.707418,97.0006295 C137.948449,97.0006295 135.18948,97.0006295 132.430511,97.0006295 C130.016413,97.0006295 127.602316,97.0006295 125.188218,97.0006295 L100.357497,97.0006295 L100.012626,104.275677 C100.012626,104.622108 100.357497,104.968538 100.702368,104.968538 L111.738244,105.6614 C118.290795,106.007831 119.325409,107.739985 119.67028,111.204293 C120.015151,114.668601 120.015151,118.825771 119.325409,126.79368 L116.56644,159.358177 L55.1793797,159.358177 L59.6627043,116.747186 C60.6973177,106.354262 63.8011578,106.007831 69.3190958,105.6614 L78.285745,104.968538 C78.6306161,104.968538 78.9754872,104.622108 78.9754872,104.275677 L79.3203584,97.0006295 L51.0409262,97.0006295 C48.9716995,97.0006295 46.5576016,97.0006295 44.4883749,97.0006295 C42.074277,97.0006295 39.6601792,97.0006295 37.2460813,97.0006295 L11.3807471,97.0006295 L11.0358759,104.622108 C11.0358759,104.968538 11.3807471,105.314969 11.7256182,105.314969 L22.7614941,106.007831 C29.3140455,106.354262 30.3486588,108.086416 30.69353,111.550724 C31.0384011,114.668601 31.0384011,118.825771 30.3486588,127.140111 L22.416623,214.094246 C21.7268808,222.755017 20.6922674,228.29791 20.0025252,230.376495 C18.6230407,233.147942 16.5538139,233.840803 13.4499738,234.187234 L3.10384011,234.880096 C2.75896899,234.880096 2.41409786,235.226526 2.41409786,235.572957 L2.06922674,242.501574 L68.9742247,242.501574 L69.3190958,235.226526 C69.3190958,234.880096 68.9742247,234.533665 68.6293535,234.533665 L58.2832198,233.840803 C52.0755396,233.494372 50.351184,231.415787 50.351184,228.29791 C50.0063129,225.526464 50.351184,222.755017 50.351184,220.330001 L54.4896375,170.443963 L115.186955,170.443963 L111.393373,213.747816 C110.703631,222.408586 109.669017,227.951479 108.979275,230.030064 C107.59979,232.801511 105.530564,233.494372 102.426724,233.840803 L92.0805899,234.533665 C91.7357188,234.533665 91.3908477,234.880096 91.3908477,235.226526 L91.0459765,242.501574 L159.330459,242.501574 L159.67533,235.226526 C159.67533,235.226526 159.67533,234.880096 159.67533,234.880096 C159.67533,234.880096 159.330459,234.533665 159.330459,234.533665 L147.604841,233.840803 C141.397161,233.494372 139.672805,231.415787 139.672805,228.29791 C139.327934,225.526464 139.672805,222.755017 139.672805,220.330001 L144.15613,170.443963 L162.089428,170.443963 C160.709943,173.561841 160.020201,176.679718 158.985588,180.490457 C157.261232,187.765504 155.536877,199.544152 156.226619,207.858492 C158.295846,232.45508 169.331722,242.848005 192.438087,242.848005 C208.991901,242.848005 224.511101,235.572957 237.271333,222.062155 C244.168755,215.133539 245.893111,208.897784 248.307209,199.890583 C250.031564,192.961966 251.75592,181.183319 250.721307,173.21541 Z M213.820096,226.565756 C210.026514,230.722926 205.543189,232.801511 200.370123,232.801511 C189.679118,232.801511 183.126566,222.755017 182.091953,213.401385 C180.712469,197.811998 181.402211,168.018947 193.4727,155.201007 C197.266283,151.043837 201.749607,148.965252 206.922674,148.965252 C217.613679,148.965252 224.16623,159.011746 225.200844,168.365378 C226.235457,183.608334 225.545715,213.401385 213.820096,226.565756 Z" id="Shape"></path>
                <path d="M409.706894,219.63714 L407.292797,221.369294 C403.499214,224.14074 398.326147,227.951479 395.91205,227.951479 C394.532565,227.951479 393.842823,227.258618 393.497952,225.872894 C393.153081,223.447879 393.842823,216.519262 395.222307,206.472768 L401.085116,167.326086 C401.774859,161.783193 401.774859,156.58673 401.429988,152.08313 C400.740245,146.886667 397.636405,142.036636 391.773596,142.036636 C389.704369,142.036636 386.9454,142.383067 383.496689,143.422359 C379.358236,144.808083 373.840298,146.886667 367.287746,151.736699 C351.423675,163.515347 341.077541,178.411872 341.077541,178.411872 L340.042928,184.994058 L341.767283,173.21541 C343.491639,163.861778 343.83651,157.279592 343.491639,153.468853 C342.457025,146.193806 339.008314,142.383067 333.145505,142.383067 C331.421149,142.383067 329.696794,142.729498 326.937825,143.422359 C322.4545,144.461652 316.936562,146.540237 309.694269,152.08313 C296.244295,162.476054 286.932775,175.640426 284.863548,178.758303 L288.65713,151.736699 L290.381486,139.958051 C290.381486,139.61162 290.381486,139.61162 290.036615,139.265189 L287.277646,137.533035 C287.277646,137.533035 286.932775,137.533035 286.587903,137.533035 C274.172543,142.383067 251.411049,145.847375 238.650817,147.579529 C238.305946,147.579529 238.305946,147.92596 238.305946,147.92596 L242.099529,152.08313 C242.099529,152.08313 242.099529,152.429561 242.099529,152.429561 C242.099529,152.429561 242.4444,152.429561 242.4444,152.775991 L254.85976,152.775991 C260.377698,152.775991 262.791796,154.854576 263.481538,160.051039 C263.826409,161.436762 263.826409,163.168916 263.826409,165.247501 C263.826409,165.247501 263.481538,171.483256 263.481538,174.254702 L263.481538,179.797595 C263.136667,186.379781 262.791796,194.34769 262.102054,200.583445 C261.412311,206.819199 258.653342,227.605048 255.204631,243.540866 C255.204631,243.540866 263.481538,243.540866 280.035352,243.540866 C280.035352,239.037265 280.725094,227.951479 282.44945,217.558555 C286.243032,195.386982 296.589166,179.451165 304.866073,170.097532 C309.004526,165.247501 313.14298,164.90107 315.901949,164.90107 C317.971176,164.90107 319.35066,167.326086 319.695531,169.751102 C320.730145,177.026149 319.35066,187.419073 318.316047,196.079844 C317.971176,197.465567 317.971176,199.197721 317.626305,200.583445 C316.936562,206.819199 314.177593,227.951479 310.728882,243.540866 C310.728882,243.540866 319.120746,243.540866 335.904474,243.540866 C335.214732,232.801511 336.249345,220.330001 339.008314,209.590646 C341.767283,198.158429 346.595479,188.111935 353.492901,179.104734 C356.941613,174.947564 365.21852,164.90107 371.081329,164.90107 C373.150555,164.90107 374.53004,165.940363 374.874911,168.018947 C375.564653,172.522548 372.115942,192.269105 371.081329,196.772706 C370.046715,201.622737 366.253133,230.030064 367.287746,237.997973 C367.977489,241.808712 371.771071,244.233728 377.289009,244.233728 C384.876174,244.233728 399.01589,238.344404 410.741508,228.644341 L409.706894,219.63714 Z" id="Shape"></path>
                <path d="M716.987065,173.21541 C714.917839,151.043837 703.19222,138.918759 682.499953,138.225897 C682.499953,138.225897 680.775597,138.225897 680.775597,138.225897 C672.153819,138.225897 654.910263,140.650913 642.494903,151.390268 C639.735934,153.815284 637.321836,156.58673 635.59748,159.011746 L570.761709,159.011746 C570.071967,159.011746 569.727096,159.358177 569.727096,160.051039 L568.347611,169.404671 C568.347611,169.751102 568.347611,170.097532 568.692482,170.097532 C569.037353,170.443963 569.037353,170.443963 569.382225,170.443963 L589.729621,170.443963 L586.28091,221.369294 C582.832198,227.951479 567.312998,232.108649 551.448926,228.644341 C533.860499,223.447879 523.169494,208.204923 521.100267,184.647627 C519.031041,160.397469 524.204107,127.486542 537.998952,114.668601 C548.000215,105.314969 565.243771,104.275677 571.796322,104.275677 C584.556554,104.275677 598.351399,109.81857 603.179595,112.590016 C603.869337,112.936447 604.559079,113.282878 604.90395,113.629309 C606.283435,114.32217 606.283435,114.32217 606.283435,115.707894 L607.662919,135.10802 C607.662919,135.800881 608.352661,136.147312 608.697533,136.147312 L616.284697,136.147312 C616.97444,136.147312 617.319311,135.800881 617.319311,135.10802 C618.009053,130.604419 618.698795,126.100818 619.388537,120.904356 C620.07828,113.97574 621.112893,107.047123 622.492378,99.4256452 C622.492378,98.7327836 622.492378,98.3863528 621.802635,98.0399219 C608.00779,91.4577364 593.523203,88.339859 578.693745,88.339859 C571.10658,88.339859 560.070704,89.0327206 551.448926,91.8041672 C509.029778,105.314969 487.302897,139.61162 491.09648,185.686919 C491.441351,190.883382 492.475964,195.386982 493.510577,199.890583 C486.268284,208.551353 460.058078,226.565756 447.987589,227.605048 C446.608105,227.605048 444.194007,227.605048 441.779909,226.565756 C436.951713,224.487171 434.882486,220.330001 433.503002,217.558555 C432.81326,215.826401 431.778646,212.362092 432.123517,208.204923 C432.123517,204.740614 432.123517,201.622737 432.81326,196.426275 C443.159393,196.079844 456.609367,192.269105 465.920888,187.419073 C476.267021,182.222611 487.992639,173.908271 486.268284,156.58673 C485.578542,148.965252 481.440088,143.422359 474.887537,140.304482 C471.783697,138.918759 468.334985,138.225897 463.161919,137.879466 C457.988852,137.879466 452.126043,138.225897 447.642718,139.61162 C421.777384,145.847375 414.53509,169.751102 414.53509,169.751102 L414.53509,169.751102 C412.465863,174.601133 411.086379,180.144026 409.706894,186.03335 C408.32741,192.961966 406.258183,207.512061 406.947925,215.826401 C406.947925,217.212124 407.292797,218.251416 407.292797,219.290709 C407.637668,220.330001 408.672281,225.526464 409.362023,227.258618 C410.051766,229.337203 412.120992,232.45508 413.845348,234.533665 C418.328673,239.730127 424.536353,242.501574 432.123517,242.848005 C440.055553,243.540866 456.264496,242.501574 474.542666,228.29791 C488.337511,217.212124 494.545191,212.015662 496.959289,209.590646 C506.960551,231.069357 528.342561,242.848005 559.380962,242.848005 C560.070704,242.848005 560.760446,242.848005 561.450189,242.848005 C577.659132,242.501574 589.039879,238.344404 603.869337,232.801511 L606.973177,231.762218 C607.318048,231.762218 607.662919,231.069357 607.662919,230.722926 L611.801373,170.790394 L628.010316,170.790394 C626.630831,173.908271 625.941089,177.026149 624.906475,180.836888 C623.18212,188.458366 621.457764,199.890583 622.147506,208.204923 C624.216733,232.801511 635.252609,243.194435 658.358974,243.194435 C674.912788,243.194435 690.431989,235.919388 703.19222,222.408586 C710.089643,215.47997 711.813998,209.244215 714.228096,200.237014 C716.297323,192.961966 717.676808,181.183319 716.987065,173.21541 Z M434.192744,179.797595 C437.641455,159.358177 444.194007,149.658114 454.885012,149.658114 C460.40295,149.658114 464.541403,153.815284 464.886274,160.051039 C465.231145,164.208208 464.541403,168.018947 463.161919,171.483256 C462.127305,173.561841 458.678594,180.836888 448.33246,184.301196 C442.814522,186.03335 435.9171,186.379781 433.503002,186.379781 C433.847873,184.647627 433.847873,183.261904 434.192744,182.222611 L434.192744,179.797595 Z M679.740984,226.565756 C675.947402,230.722926 671.464077,232.801511 666.29101,232.801511 C655.600005,232.801511 649.047454,222.755017 648.012841,213.401385 C646.633356,197.811998 647.323098,168.018947 659.393588,155.201007 C663.18717,151.043837 667.670495,148.965252 672.843562,148.965252 C683.534566,148.965252 690.087118,159.011746 691.121731,168.365378 C692.501216,183.608334 691.466602,213.401385 679.740984,226.565756 Z" id="Shape"></path>
            </g>
        </g>
    </g>
</svg>